#!OML:ASF F:\VICON\USERDATA\INSTALL\rory3\rory3.ASF
:FULLY-SPECIFIED
:DEGREES
4520
root -2.36116 17.5119 -0.431039 6.67076 -12.3093 1.80313
lowerback 9.08195 -2.41917 -5.02956
upperback 3.05419 -3.58033 3.69647
thorax -1.34805 -1.84198 7.05668
lowerneck -27.2231 -1.29149 -8.47038
upperneck 22.7598 -0.429611 7.32559
head 12.0188 0.0582888 4.1184
rclavicle -1.51076e-014 -1.51076e-014
rhumerus -20.6217 11.8629 -68.2623
rradius 77.2353
rwrist 35.8796
rhand -36.1522 1.3793
rfingers 7.12502
rthumb -9.25668 -28.3975
lclavicle -1.51076e-014 -1.51076e-014
lhumerus -7.91548 -8.30829 75.7545
lradius 64.9095
lwrist -20.7479
lhand -29.544 25.4765
lfingers 7.12502
lthumb -2.87709 55.4368
rfemur -26.9764 2.56309 13.8377
rtibia 41.0984
rfoot -16.8707 -0.816938
rtoes 2.12342
lfemur -18.3417 3.4815 -14.4616
ltibia 32.0585
lfoot -14.627 9.53639
ltoes -18.024
4521
root -2.3667 17.5043 -0.421842 6.66487 -12.3871 1.86255
lowerback 8.8962 -2.42954 -4.98145
upperback 3.12911 -3.58318 3.74816
thorax -1.16652 -1.85274 7.06987
lowerneck -27.3446 -1.18505 -8.33974
upperneck 22.754 -0.256127 7.09509
head 12.022 0.117431 4.03901
rclavicle -4.67144e-014 8.74653e-015
rhumerus -21.2274 12.0661 -68.8591
rradius 78.3058
rwrist 36.4301
rhand -36.253 1.26226
rfingers 7.12502
rthumb -9.35392 -28.5102
lclavicle -4.67144e-014 8.74653e-015
lhumerus -7.61206 -8.25908 76.1951
lradius 65.0038
lwrist -21.1624
lhand -29.9552 25.4799
lfingers 7.12502
lthumb -3.27416 55.4345
rfemur -27.067 2.37736 13.8046
rtibia 41.3321
rfoot -16.9038 -0.551285
rtoes 2.36997
lfemur -18.4551 3.76558 -14.5286
ltibia 32.3487
lfoot -14.8283 9.2953
ltoes -17.9794
4522
root -2.37239 17.4991 -0.416135 6.58832 -12.3672 1.83517
lowerback 8.92324 -2.44611 -4.92883
upperback 3.13343 -3.60028 3.8403
thorax -1.17127 -1.86195 7.14096
lowerneck -27.1972 -1.0643 -8.18249
upperneck 22.689 -0.0946594 6.86108
head 11.9538 0.170808 3.94538
rclavicle -6.20208e-014 3.33958e-014
rhumerus -21.9089 12.3345 -69.4307
rradius 79.2818
rwrist 36.888
rhand -36.1897 1.5344
rfingers 7.12502
rthumb -9.29286 -28.2408
lclavicle -6.20208e-014 3.33958e-014
lhumerus -7.54051 -8.27664 76.6427
lradius 65.1574
lwrist -21.3623
lhand -30.3997 25.2854
lfingers 7.12502
lthumb -3.70343 55.2329
rfemur -27.0315 2.28122 13.8397
rtibia 41.5077
rfoot -17.0121 -0.26305
rtoes 3.23959
lfemur -18.497 3.93115 -14.481
ltibia 32.6363
lfoot -14.973 9.14466
ltoes -18.444
4523
root -2.37851 17.4877 -0.411649 6.40499 -12.3581 1.7837
lowerback 9.06833 -2.43792 -4.86364
upperback 3.17261 -3.58765 3.91847
thorax -1.21123 -1.8558 7.19379
lowerneck -27.1607 -0.991344 -8.22872
upperneck 22.7337 0.0187447 6.87462
head 11.9537 0.217939 3.9789
rclavicle 1.5704e-014 -5.40694e-014
rhumerus -22.5791 12.6465 -70.0294
rradius 80.2499
rwrist 37.1981
rhand -36.1516 1.35716
rfingers 7.12502
rthumb -9.25607 -28.4197
lclavicle 1.5704e-014 -5.40694e-014
lhumerus -7.44058 -8.34727 77.005
lradius 65.2302
lwrist -21.6145
lhand -30.8489 25.3625
lfingers 7.12502
lthumb -4.13726 55.302
rfemur -26.9071 2.12564 13.9478
rtibia 41.645
rfoot -17.0427 -0.0508234
rtoes 3.62969
lfemur -18.4219 4.12516 -14.3792
ltibia 32.9257
lfoot -15.1064 8.90187
ltoes -18.3611
4524
root -2.38195 17.4755 -0.407765 6.2954 -12.4011 1.69048
lowerback 9.08724 -2.37721 -4.73026
upperback 3.22518 -3.49461 4.03427
thorax -1.1824 -1.81218 7.23255
lowerneck -27.2305 -1.02463 -8.38875
upperneck 22.871 0.0565283 6.82114
head 12.0168 0.211103 3.99755
rclavicle 5.1684e-015 -1.19271e-014
rhumerus -23.1351 12.846 -70.5239
rradius 81.1032
rwrist 37.485
rhand -36.2902 1.47059
rfingers 7.12502
rthumb -9.38984 -28.3003
lclavicle 5.1684e-015 -1.19271e-014
lhumerus -7.17088 -8.43528 77.4252
lradius 65.2635
lwrist -21.9597
lhand -30.9948 25.4096
lfingers 7.12502
lthumb -4.27811 55.3464
rfemur -26.8585 1.93301 14.1
rtibia 41.7772
rfoot -16.9966 0.094617
rtoes 3.20428
lfemur -18.4152 4.31749 -14.2484
ltibia 33.1921
lfoot -15.2621 8.73256
ltoes -18.678
4525
root -2.3847 17.4642 -0.404229 6.24243 -12.3981 1.67917
lowerback 9.07009 -2.28451 -4.65835
upperback 3.18336 -3.36314 4.08693
thorax -1.23869 -1.74294 7.23712
lowerneck -27.0725 -0.95104 -8.16837
upperneck 22.9562 0.136004 6.53143
head 12.0138 0.223176 3.8629
rclavicle 6.75868e-015 5.1684e-014
rhumerus -23.7411 13.048 -70.9832
rradius 81.8711
rwrist 37.6552
rhand -36.394 1.37824
rfingers 7.12502
rthumb -9.48993 -28.3881
lclavicle 6.75868e-015 5.1684e-014
lhumerus -7.1115 -8.74556 77.7771
lradius 65.4153
lwrist -22.2227
lhand -31.1568 25.2649
lfingers 7.12502
lthumb -4.43459 55.1984
rfemur -26.8632 1.6949 14.1477
rtibia 41.9249
rfoot -16.9635 0.275687
rtoes 3.31079
lfemur -18.4961 4.53267 -14.2179
ltibia 33.4311
lfoot -15.2943 8.56499
ltoes -19.4127
